<svg width="24" height="19" viewBox="0 0 24 19" fill="none" xmlns="http://www.w3.org/2000/svg">
<path d="M21.4442 3.125H20.1282C20.0228 3.12126 19.9209 3.08641 19.8353 3.02483C19.7497 2.96326 19.6842 2.87772 19.6472 2.779C19.0292 1.475 18.3902 0.125 17.0002 0.125H12.0002C10.9292 0.125 10.3642 0.903 9.34116 2.316C8.95716 2.843 8.83116 3.125 8.49716 3.125H2.49716C0.434161 3.125 0.000160385 4.334 0.000160385 5.348V15.736C-0.0230438 16.0703 0.0285996 16.4056 0.151331 16.7175C0.274062 17.0294 0.464792 17.3099 0.709636 17.5388C0.954479 17.7676 1.24727 17.939 1.5667 18.0404C1.88613 18.1418 2.22415 18.1707 2.55616 18.125H21.4442C21.7762 18.1707 22.1142 18.1418 22.4336 18.0404C22.7531 17.939 23.0458 17.7676 23.2907 17.5388C23.5355 17.3099 23.7263 17.0294 23.849 16.7175C23.9717 16.4056 24.0234 16.0703 24.0002 15.736V5.348C24.0002 4.334 23.5572 3.125 21.4442 3.125ZM20.5002 10.125C20.5002 11.2622 20.1629 12.3739 19.5311 13.3195C18.8993 14.2651 18.0013 15.0021 16.9506 15.4373C15.8999 15.8725 14.7438 15.9864 13.6284 15.7645C12.513 15.5427 11.4885 14.995 10.6843 14.1909C9.88015 13.3867 9.33251 12.3622 9.11065 11.2468C8.88878 10.1314 9.00265 8.97525 9.43785 7.92457C9.87306 6.87389 10.6101 5.97587 11.5556 5.34405C12.5012 4.71223 13.6129 4.375 14.7502 4.375C16.2747 4.37659 17.7363 4.9829 18.8143 6.06089C19.8923 7.13888 20.4986 8.60049 20.5002 10.125ZM5.00016 6.875C5.00016 7.12223 4.92685 7.3639 4.7895 7.56946C4.65215 7.77502 4.45692 7.93524 4.22852 8.02985C4.00011 8.12446 3.74877 8.14921 3.5063 8.10098C3.26382 8.05275 3.04109 7.9337 2.86628 7.75888C2.69146 7.58407 2.57241 7.36134 2.52418 7.11886C2.47595 6.87639 2.5007 6.62505 2.59531 6.39665C2.68992 6.16824 2.85014 5.97301 3.0557 5.83566C3.26126 5.69831 3.50293 5.625 3.75016 5.625C4.08168 5.625 4.39962 5.7567 4.63404 5.99112C4.86846 6.22554 5.00016 6.54348 5.00016 6.875Z" fill="#681484"/>
</svg>
