<svg width="32" height="32" viewBox="0 0 32 32" fill="none" xmlns="http://www.w3.org/2000/svg">
<rect width="32" height="32" rx="4" fill="#FFF3C4"/>
<g clip-path="url(#clip0)">
<path d="M18.4219 14.3475C18.256 14.3475 18.0902 14.3066 17.9427 14.2291L16.3602 13.4041L14.781 14.2291C14.6335 14.3066 14.4685 14.3475 14.3027 14.3475C14.0877 14.3475 13.8802 14.2808 13.7035 14.155C13.3894 13.9325 13.226 13.54 13.2902 13.1558L13.5935 11.4016L12.3102 10.1575C12.031 9.88997 11.9285 9.47664 12.051 9.10664C12.176 8.73414 12.4944 8.46914 12.8819 8.41497L14.6502 8.15914L15.4385 6.56997C15.5644 6.3208 15.776 6.13747 16.0377 6.05164C16.1435 6.01664 16.2519 5.99997 16.361 5.99997C16.5202 5.99997 16.6802 6.0383 16.8235 6.10997C17.0219 6.20997 17.1794 6.36747 17.2802 6.5658L18.0702 8.1583L19.841 8.41414C20.226 8.4683 20.5435 8.73164 20.6677 9.10247C20.791 9.47497 20.6885 9.88914 20.4069 10.1583L19.131 11.4L19.4335 13.1508C19.4977 13.5375 19.3344 13.9308 19.0169 14.155C18.8435 14.2816 18.6369 14.3475 18.4219 14.3475ZM16.3602 12.125C16.5277 12.125 16.6944 12.1666 16.8419 12.245L18.1252 12.9141L17.8794 11.4925C17.8235 11.1583 17.9344 10.8208 18.176 10.5875L19.2052 9.58664L17.776 9.37997C17.4427 9.33164 17.1544 9.1233 17.0035 8.82164L16.3602 7.5258L15.7177 8.8208C15.5669 9.1233 15.2777 9.33247 14.9444 9.37997L13.5169 9.58664L14.5502 10.5891C14.791 10.8216 14.9019 11.1591 14.846 11.4908L14.6002 12.9141L15.8827 12.2433C16.0277 12.1666 16.1935 12.125 16.3602 12.125Z" fill="#F0B429"/>
<path d="M8.30235 15.3433C8.08818 15.3433 7.88234 15.2783 7.70735 15.1541C7.38818 14.9275 7.22484 14.5333 7.28984 14.15L7.59151 12.3983L6.30984 11.1575C6.03068 10.8875 5.92901 10.475 6.05068 10.1066C6.17568 9.7333 6.49401 9.46914 6.88068 9.41414L8.64985 9.1583L9.43901 7.56914C9.61484 7.21747 9.96734 6.99997 10.359 6.99997C10.5298 7.0008 10.6865 7.0658 10.804 7.18414C10.9215 7.30247 10.9865 7.45997 10.9857 7.62664C10.9848 7.9208 10.7798 8.16747 10.5057 8.2333L9.71734 9.81997C9.56568 10.1233 9.27651 10.3316 8.94234 10.3791L7.51651 10.5858L8.54901 11.585C8.79151 11.8191 8.90151 12.1575 8.84485 12.4891L8.59901 13.9108L9.88151 13.2425C10.0282 13.1658 10.1932 13.1258 10.359 13.1258C10.5248 13.1258 10.6898 13.1658 10.8365 13.2425L11.5557 13.6175C11.8615 13.7766 11.9798 14.155 11.8207 14.4608C11.7123 14.6683 11.4998 14.7966 11.2665 14.7966C11.1665 14.7966 11.0673 14.7725 10.9782 14.7258L10.359 14.4025L8.77984 15.225C8.63318 15.3025 8.46734 15.3433 8.30235 15.3433Z" fill="#F0B429"/>
<path d="M23.5898 15.3441C23.4248 15.3441 23.259 15.3033 23.1115 15.2266L21.5332 14.4033L20.9148 14.7266C20.8265 14.7733 20.7257 14.7975 20.6257 14.7975C20.3915 14.7975 20.1798 14.6691 20.0715 14.4616C19.994 14.3133 19.979 14.1441 20.029 13.985C20.079 13.8258 20.1882 13.695 20.3357 13.6183L21.0548 13.2425C21.2015 13.1658 21.3673 13.125 21.5332 13.125C21.699 13.125 21.864 13.1658 22.0107 13.2425L23.2932 13.9108L23.0482 12.49C22.9907 12.1583 23.1015 11.82 23.344 11.585L24.3773 10.5825L22.949 10.3758C22.6165 10.3283 22.3273 10.1208 22.1765 9.81914L21.3873 8.23247C21.1132 8.16664 20.9082 7.91997 20.9073 7.62664C20.9065 7.45997 20.9715 7.30247 21.089 7.18414C21.2065 7.0658 21.3632 6.99997 21.5307 6.99997C21.9257 6.99997 22.2773 7.21747 22.4532 7.56747L23.2432 9.15497L25.0148 9.4108C25.3998 9.46414 25.7173 9.7283 25.8423 10.0991C25.9648 10.47 25.8632 10.8833 25.584 11.1533L24.3023 12.3966L24.604 14.1475C24.669 14.5325 24.5065 14.9258 24.189 15.1516C24.0107 15.2783 23.804 15.3441 23.5898 15.3441Z" fill="#F0B429"/>
<path d="M20.0015 26.15C19.8215 26.15 19.6499 26.0725 19.5315 25.9366C18.6624 24.9433 17.459 24.3483 16.1424 24.2608C16.0299 24.2533 15.9174 24.2491 15.8049 24.2491C14.6132 24.2491 13.4615 24.6833 12.5607 25.4716C12.3965 25.615 12.2399 25.7716 12.0957 25.9366C11.9774 26.0725 11.8057 26.15 11.6249 26.15C11.4732 26.15 11.3274 26.095 11.2132 25.9958C10.954 25.7691 10.9274 25.3733 11.154 25.1141C11.3349 24.9075 11.5307 24.7116 11.7374 24.5316C12.8657 23.5441 14.3107 23 15.8049 23C15.944 23 16.0857 23.005 16.2249 23.0141C17.874 23.1241 19.3824 23.87 20.4715 25.115C20.5815 25.24 20.6357 25.4016 20.6249 25.5683C20.614 25.735 20.5382 25.8875 20.4124 25.9966C20.299 26.095 20.1524 26.15 20.0015 26.15Z" fill="#F0B429"/>
<path d="M16.0625 23.125C13.8225 23.125 12 21.3025 12 19.0625C12 16.8225 13.8225 15 16.0625 15C18.3025 15 20.125 16.8225 20.125 19.0625C20.125 21.3025 18.3025 23.125 16.0625 23.125ZM16.0625 16.25C14.5117 16.25 13.25 17.5116 13.25 19.0625C13.25 20.6133 14.5117 21.875 16.0625 21.875C17.6133 21.875 18.875 20.6133 18.875 19.0625C18.875 17.5116 17.6133 16.25 16.0625 16.25Z" fill="#F0B429"/>
</g>
<defs>
<clipPath id="clip0">
<rect width="20" height="20" fill="white" transform="translate(6 6)"/>
</clipPath>
</defs>
</svg>
