<svg width="16" height="17" viewBox="0 0 16 17" fill="none" xmlns="http://www.w3.org/2000/svg">
<path d="M2.12589 6.10529L7.61728 12.336C7.66703 12.3878 7.72675 12.4291 7.79286 12.4573C7.85898 12.4855 7.93011 12.5 8.00199 12.5C8.07387 12.5 8.14501 12.4855 8.21112 12.4573C8.27723 12.4291 8.33696 12.3878 8.3867 12.336L13.8756 6.10529C13.9195 6.05586 13.953 5.99812 13.9741 5.93549C13.9953 5.87287 14.0036 5.80664 13.9986 5.74074C13.9936 5.67483 13.9754 5.61061 13.9451 5.55187C13.9148 5.49314 13.8729 5.44109 13.8221 5.39883L12.8972 4.62093C12.7941 4.53404 12.6609 4.49115 12.5264 4.50152C12.3919 4.5119 12.2669 4.57471 12.1783 4.67639L8.09623 9.39925C8.0845 9.41288 8.06996 9.42381 8.05361 9.43131C8.03726 9.4388 8.01948 9.44268 8.00149 9.44268C7.9835 9.44268 7.96573 9.4388 7.94938 9.43131C7.93302 9.42381 7.91849 9.41288 7.90675 9.39925L3.8232 4.67589C3.73455 4.57467 3.60949 4.51254 3.47524 4.50302C3.40867 4.49709 3.34159 4.50456 3.27796 4.52498C3.21433 4.54541 3.15544 4.57837 3.10478 4.62193L2.17938 5.39883C2.12825 5.44102 2.08613 5.49306 2.05556 5.55186C2.02498 5.61066 2.00656 5.675 2.0014 5.74107C1.99639 5.80704 2.00485 5.87333 2.02625 5.93594C2.04764 5.99855 2.08154 6.05616 2.12589 6.10529Z" fill="#78838F"/>
</svg>