<svg width="32" height="32" viewBox="0 0 32 32" fill="none" xmlns="http://www.w3.org/2000/svg">
<rect width="32" height="32" rx="4" fill="#E3F9E5"/>
<g clip-path="url(#clip0)">
<path d="M9.82584 24.785C9.47421 25.1366 8.9973 25.3342 8.50001 25.3342C8.00273 25.3342 7.52581 25.1366 7.17418 24.785C6.82255 24.4334 6.625 23.9565 6.625 23.4592C6.625 22.9619 6.82255 22.485 7.17418 22.1333L12.4775 16.8333L15.1292 19.485L9.82584 24.785Z" stroke="#23CB88" stroke-width="1.5" stroke-linecap="round" stroke-linejoin="round"/>
<path d="M21.3157 10.6433L13.8032 18.1558" stroke="#23CB88" stroke-width="1.5" stroke-linecap="round" stroke-linejoin="round"/>
<path d="M23.0836 10.6433C22.8491 10.8777 22.5311 11.0093 22.1995 11.0093C21.868 11.0092 21.55 10.8774 21.3156 10.6429C21.0813 10.4084 20.9496 10.0904 20.9497 9.75886C20.9498 9.42731 21.0816 9.10937 21.3161 8.87499L23.5261 6.66666L25.2936 8.43332L23.0836 10.6433Z" stroke="#23CB88" stroke-width="1.5" stroke-linecap="round" stroke-linejoin="round"/>
<path d="M14.7418 12.9333L12.8335 11.0208C13.0556 10.4553 13.108 9.83715 12.9841 9.24227C12.8602 8.64739 12.5654 8.10157 12.136 7.67168C11.6332 7.17248 10.9742 6.86121 10.2693 6.79001C10.5685 7.26819 10.6968 7.83367 10.6332 8.39416C10.5697 8.95464 10.318 9.47702 9.91926 9.87603C9.52054 10.275 8.99834 10.5271 8.43791 10.5911C7.87747 10.6551 7.31189 10.5272 6.8335 10.2283C6.88325 10.7045 7.04257 11.1626 7.29896 11.5668C7.55535 11.9711 7.90186 12.3105 8.31134 12.5585C8.72082 12.8064 9.18215 12.9562 9.65919 12.9961C10.1362 13.036 10.616 12.9649 11.061 12.7883L12.3743 14.1017" stroke="#23CB88" stroke-width="1.5" stroke-linecap="round" stroke-linejoin="round"/>
<path d="M17.8643 19.5917L19.3434 21.07C19.0812 21.7383 19.057 22.4766 19.2751 23.1606C19.4931 23.8447 19.9401 24.4328 20.5407 24.826C21.1414 25.2193 21.8592 25.3937 22.5733 25.32C23.2875 25.2463 23.9545 24.9289 24.4622 24.4212C24.9698 23.9136 25.2872 23.2466 25.3609 22.5324C25.4347 21.8182 25.2602 21.1005 24.867 20.4998C24.4737 19.8991 23.8856 19.4522 23.2016 19.2341C22.5175 19.0161 21.7793 19.0402 21.1109 19.3025L19.0184 17.21" stroke="#23CB88" stroke-width="1.5" stroke-linecap="round" stroke-linejoin="round"/>
<path d="M22.0289 21.9883C22.0726 21.9446 22.1283 21.9148 22.1889 21.9027C22.2495 21.8906 22.3124 21.8968 22.3695 21.9204C22.4266 21.9441 22.4755 21.9841 22.5098 22.0355C22.5442 22.0869 22.5625 22.1473 22.5625 22.2092C22.5625 22.271 22.5442 22.3314 22.5098 22.3828C22.4755 22.4342 22.4266 22.4743 22.3695 22.4979C22.3124 22.5216 22.2495 22.5277 22.1889 22.5156C22.1283 22.5035 22.0726 22.4737 22.0289 22.43C21.9704 22.3714 21.9375 22.292 21.9375 22.2092C21.9375 22.1264 21.9704 22.0469 22.0289 21.9883" stroke="#23CB88" stroke-width="1.5" stroke-linecap="round" stroke-linejoin="round"/>
</g>
<defs>
<clipPath id="clip0">
<rect width="20" height="20" fill="white" transform="translate(6 6)"/>
</clipPath>
</defs>
</svg>
