<svg width="32" height="32" viewBox="0 0 32 32" fill="none" xmlns="http://www.w3.org/2000/svg">
<rect width="32" height="32" rx="4" fill="#E3F9E5"/>
<g clip-path="url(#clip0)">
<path d="M22.875 10.375H9.125C7.74429 10.375 6.625 11.4943 6.625 12.875V22.875C6.625 24.2557 7.74429 25.375 9.125 25.375H22.875C24.2557 25.375 25.375 24.2557 25.375 22.875V12.875C25.375 11.4943 24.2557 10.375 22.875 10.375Z" stroke="#23CB88" stroke-width="1.5" stroke-linecap="round" stroke-linejoin="round"/>
<path d="M17.875 6.625H14.125C13.7935 6.625 13.4755 6.7567 13.2411 6.99112C13.0067 7.22554 12.875 7.54348 12.875 7.875V10.375H19.125V7.875C19.125 7.54348 18.9933 7.22554 18.7589 6.99112C18.5245 6.7567 18.2065 6.625 17.875 6.625V6.625Z" stroke="#23CB88" stroke-width="1.5" stroke-linecap="round" stroke-linejoin="round"/>
<path d="M16 19.125C16.6904 19.125 17.25 18.5654 17.25 17.875C17.25 17.1846 16.6904 16.625 16 16.625C15.3096 16.625 14.75 17.1846 14.75 17.875C14.75 18.5654 15.3096 19.125 16 19.125Z" stroke="#23CB88" stroke-width="1.5" stroke-linecap="round" stroke-linejoin="round"/>
<path d="M17.0617 13.0392L17.4301 14.25C17.4908 14.451 17.6257 14.6214 17.8073 14.7267C17.9889 14.8321 18.2038 14.8645 18.4084 14.8175L19.6351 14.5334C19.8676 14.481 20.1107 14.5044 20.3289 14.6002C20.5472 14.696 20.729 14.8592 20.8478 15.0658C20.9665 15.2724 21.016 15.5116 20.989 15.7484C20.962 15.9852 20.8598 16.2072 20.6976 16.3817L19.8384 17.3075C19.695 17.4617 19.6153 17.6645 19.6153 17.875C19.6153 18.0856 19.695 18.2883 19.8384 18.4425L20.6976 19.3684C20.8598 19.5429 20.962 19.7648 20.989 20.0016C21.016 20.2384 20.9665 20.4776 20.8478 20.6843C20.729 20.8909 20.5472 21.054 20.3289 21.1499C20.1107 21.2457 19.8676 21.2691 19.6351 21.2167L18.4084 20.9325C18.2038 20.8855 17.9889 20.918 17.8073 21.0233C17.6257 21.1287 17.4908 21.2991 17.4301 21.5L17.0617 22.7109C16.9933 22.9392 16.853 23.1394 16.6618 23.2818C16.4705 23.4241 16.2385 23.501 16.0001 23.501C15.7617 23.501 15.5296 23.4241 15.3384 23.2818C15.1471 23.1394 15.0068 22.9392 14.9384 22.7109L14.5701 21.5C14.5093 21.2991 14.3744 21.1287 14.1928 21.0233C14.0112 20.918 13.7964 20.8855 13.5917 20.9325L12.3651 21.2167C12.1326 21.2691 11.8894 21.2457 11.6712 21.1499C11.4529 21.054 11.2711 20.8909 11.1524 20.6843C11.0336 20.4776 10.9841 20.2384 11.0111 20.0016C11.0381 19.7648 11.1403 19.5429 11.3026 19.3684L12.1617 18.4425C12.3051 18.2883 12.3848 18.0856 12.3848 17.875C12.3848 17.6645 12.3051 17.4617 12.1617 17.3075L11.3026 16.3817C11.1403 16.2072 11.0381 15.9852 11.0111 15.7484C10.9841 15.5116 11.0336 15.2724 11.1524 15.0658C11.2711 14.8592 11.4529 14.696 11.6712 14.6002C11.8894 14.5044 12.1326 14.481 12.3651 14.5334L13.5917 14.8175C13.7964 14.8645 14.0112 14.8321 14.1928 14.7267C14.3744 14.6214 14.5093 14.451 14.5701 14.25L14.9384 13.0392C15.0068 12.8108 15.1471 12.6106 15.3384 12.4683C15.5296 12.326 15.7617 12.2491 16.0001 12.2491C16.2385 12.2491 16.4705 12.326 16.6618 12.4683C16.853 12.6106 16.9933 12.8108 17.0617 13.0392V13.0392Z" stroke="#23CB88" stroke-width="1.5" stroke-linecap="round" stroke-linejoin="round"/>
</g>
<defs>
<clipPath id="clip0">
<rect width="20" height="20" fill="white" transform="translate(6 6)"/>
</clipPath>
</defs>
</svg>
