<svg width="24" height="24" viewBox="0 0 24 24" fill="none" xmlns="http://www.w3.org/2000/svg">
<path d="M15.5921 3.18883L6.24602 11.4259C6.16824 11.5005 6.10635 11.5901 6.06407 11.6893C6.02179 11.7885 6 11.8952 6 12.003C6 12.1108 6.02179 12.2175 6.06407 12.3167C6.10635 12.4158 6.16824 12.5054 6.24602 12.58L15.5921 20.8134C15.6662 20.8792 15.7528 20.9295 15.8468 20.9612C15.9407 20.9929 16.04 21.0054 16.1389 20.9979C16.2377 20.9904 16.3341 20.9631 16.4222 20.9176C16.5103 20.8722 16.5884 20.8094 16.6518 20.7332L17.8186 19.3458C17.9489 19.1911 18.0133 18.9913 17.9977 18.7896C17.9821 18.5878 17.8879 18.4003 17.7354 18.2674L10.6511 12.1443C10.6307 12.1267 10.6143 12.1049 10.603 12.0804C10.5918 12.0559 10.586 12.0292 10.586 12.0022C10.586 11.9753 10.5918 11.9486 10.603 11.9241C10.6143 11.8995 10.6307 11.8777 10.6511 11.8601L17.7362 5.7348C17.888 5.60183 17.9812 5.41424 17.9955 5.21286C18.0044 5.113 17.9932 5.01238 17.9625 4.91694C17.9319 4.82149 17.8824 4.73316 17.8171 4.65717L16.6518 3.26907C16.5885 3.19237 16.5104 3.1292 16.4222 3.08334C16.334 3.03747 16.2375 3.00984 16.1384 3.0021C16.0394 2.99459 15.94 3.00727 15.8461 3.03937C15.7522 3.07147 15.6658 3.12231 15.5921 3.18883Z" fill="#FFFFFF"/>
</svg>