<svg width="22" height="22" viewBox="0 0 22 22" fill="none" xmlns="http://www.w3.org/2000/svg">
<path d="M2.29167 5.95638C3.55732 5.95638 4.58333 4.93037 4.58333 3.66471C4.58333 2.39906 3.55732 1.37305 2.29167 1.37305C1.02601 1.37305 0 2.39906 0 3.66471C0 4.93037 1.02601 5.95638 2.29167 5.95638Z" fill="white"/>
<path d="M7.79167 4.58333H21.0833C21.3264 4.58333 21.5596 4.48676 21.7315 4.31485C21.9034 4.14294 22 3.90978 22 3.66667C22 3.42355 21.9034 3.19039 21.7315 3.01849C21.5596 2.84658 21.3264 2.75 21.0833 2.75H7.79167C7.54855 2.75 7.31539 2.84658 7.14349 3.01849C6.97158 3.19039 6.875 3.42355 6.875 3.66667C6.875 3.90978 6.97158 4.14294 7.14349 4.31485C7.31539 4.48676 7.54855 4.58333 7.79167 4.58333Z" fill="white"/>
<path d="M2.29167 13.2899C3.55732 13.2899 4.58333 12.2639 4.58333 10.9982C4.58333 9.73256 3.55732 8.70654 2.29167 8.70654C1.02601 8.70654 0 9.73256 0 10.9982C0 12.2639 1.02601 13.2899 2.29167 13.2899Z" fill="white"/>
<path d="M21.0833 10.0833H7.79167C7.54855 10.0833 7.31539 10.1798 7.14349 10.3517C6.97158 10.5236 6.875 10.7568 6.875 10.9999C6.875 11.243 6.97158 11.4762 7.14349 11.6481C7.31539 11.82 7.54855 11.9166 7.79167 11.9166H21.0833C21.3264 11.9166 21.5596 11.82 21.7315 11.6481C21.9034 11.4762 22 11.243 22 10.9999C22 10.7568 21.9034 10.5236 21.7315 10.3517C21.5596 10.1798 21.3264 10.0833 21.0833 10.0833Z" fill="white"/>
<path d="M2.29167 20.6231C3.55732 20.6231 4.58333 19.5971 4.58333 18.3315C4.58333 17.0658 3.55732 16.0398 2.29167 16.0398C1.02601 16.0398 0 17.0658 0 18.3315C0 19.5971 1.02601 20.6231 2.29167 20.6231Z" fill="white"/>
<path d="M21.0833 17.4167H7.79167C7.54855 17.4167 7.31539 17.5133 7.14349 17.6852C6.97158 17.8571 6.875 18.0903 6.875 18.3334C6.875 18.5765 6.97158 18.8097 7.14349 18.9816C7.31539 19.1535 7.54855 19.2501 7.79167 19.2501H21.0833C21.3264 19.2501 21.5596 19.1535 21.7315 18.9816C21.9034 18.8097 22 18.5765 22 18.3334C22 18.0903 21.9034 17.8571 21.7315 17.6852C21.5596 17.5133 21.3264 17.4167 21.0833 17.4167Z" fill="white"/>
</svg>
