<svg width="32" height="32" viewBox="0 0 32 32" fill="none" xmlns="http://www.w3.org/2000/svg">
<rect width="32" height="32" rx="4" fill="#E6F6FF"/>
<g clip-path="url(#clip0)">
<path d="M17.875 21C20.2912 21 22.25 19.0412 22.25 16.625C22.25 14.2088 20.2912 12.25 17.875 12.25C15.4588 12.25 13.5 14.2088 13.5 16.625C13.5 19.0412 15.4588 21 17.875 21Z" stroke="#2177F7" stroke-width="1.5" stroke-linecap="round" stroke-linejoin="round"/>
<path d="M22.25 11L21.3458 9.19083C21.242 8.98318 21.0823 8.80856 20.8848 8.68654C20.6873 8.56453 20.4597 8.49993 20.2275 8.5H15.5225C15.2903 8.49993 15.0627 8.56453 14.8652 8.68654C14.6677 8.80856 14.508 8.98318 14.4042 9.19083L13.5 11H7.875C7.54348 11 7.22554 11.1317 6.99112 11.3661C6.7567 11.6005 6.625 11.9185 6.625 12.25V22.25C6.625 22.5815 6.7567 22.8995 6.99112 23.1339C7.22554 23.3683 7.54348 23.5 7.875 23.5H24.125C24.4565 23.5 24.7745 23.3683 25.0089 23.1339C25.2433 22.8995 25.375 22.5815 25.375 22.25V12.25C25.375 11.9185 25.2433 11.6005 25.0089 11.3661C24.7745 11.1317 24.4565 11 24.125 11H22.25Z" stroke="#2177F7" stroke-width="1.5" stroke-linecap="round" stroke-linejoin="round"/>
<path d="M9.4375 13.5C9.49931 13.5 9.55973 13.5183 9.61112 13.5527C9.66251 13.587 9.70256 13.6358 9.72621 13.6929C9.74986 13.75 9.75605 13.8128 9.744 13.8735C9.73194 13.9341 9.70217 13.9898 9.65847 14.0335C9.61477 14.0772 9.55908 14.1069 9.49847 14.119C9.43785 14.1311 9.37501 14.1249 9.31791 14.1012C9.26081 14.0776 9.212 14.0375 9.17767 13.9861C9.14333 13.9347 9.125 13.8743 9.125 13.8125C9.125 13.7296 9.15792 13.6501 9.21653 13.5915C9.27513 13.5329 9.35462 13.5 9.4375 13.5Z" stroke="#2177F7" stroke-width="1.5" stroke-linecap="round" stroke-linejoin="round"/>
<path d="M10.375 11V9.75" stroke="#2177F7" stroke-width="1.5" stroke-linecap="round" stroke-linejoin="round"/>
</g>
<defs>
<clipPath id="clip0">
<rect width="20" height="20" fill="white" transform="translate(6 6)"/>
</clipPath>
</defs>
</svg>
