<svg width="32" height="32" viewBox="0 0 32 32" fill="none" xmlns="http://www.w3.org/2000/svg">
<rect width="32" height="32" rx="4" fill="#E6F6FF"/>
<g clip-path="url(#clip0)">
<path d="M23.6665 16.0625L24.6332 20.1375C24.7794 20.7655 24.7816 21.4185 24.6393 22.0475C24.4971 22.6764 24.2143 23.265 23.8121 23.7689C23.4098 24.2729 22.8987 24.6793 22.3169 24.9574C21.7352 25.2356 21.098 25.3783 20.4532 25.375H11.5457C10.9009 25.3783 10.2637 25.2356 9.68193 24.9574C9.1002 24.6793 8.58903 24.2729 8.1868 23.7689C7.78457 23.265 7.50173 22.6764 7.35952 22.0475C7.2173 21.4185 7.21941 20.7655 7.36568 20.1375L8.33318 16.0625" stroke="#2177F7" stroke-width="1.5" stroke-linecap="round" stroke-linejoin="round"/>
<path d="M14.125 17.875H11.4858C10.5382 17.8848 9.62543 17.5178 8.94831 16.8547C8.27118 16.1917 7.88511 15.2868 7.875 14.3392V11.625C7.875 11.2935 8.0067 10.9755 8.24112 10.7411C8.47554 10.5067 8.79348 10.375 9.125 10.375H22.875C23.2065 10.375 23.5245 10.5067 23.7589 10.7411C23.9933 10.9755 24.125 11.2935 24.125 11.625V14.3392C24.1149 15.2868 23.7288 16.1917 23.0517 16.8547C22.3746 17.5178 21.4618 17.8848 20.5142 17.875H17.875" stroke="#2177F7" stroke-width="1.5" stroke-linecap="round" stroke-linejoin="round"/>
<path d="M16 19.75C17.0355 19.75 17.875 18.9105 17.875 17.875C17.875 16.8395 17.0355 16 16 16C14.9645 16 14.125 16.8395 14.125 17.875C14.125 18.9105 14.9645 19.75 16 19.75Z" stroke="#2177F7" stroke-width="1.5" stroke-linecap="round" stroke-linejoin="round"/>
<path d="M14.5417 6.625H17.4583C17.9004 6.625 18.3243 6.80059 18.6368 7.11316C18.9494 7.42572 19.125 7.84964 19.125 8.29167V10.375H12.875V8.29167C12.875 7.84964 13.0506 7.42572 13.3632 7.11316C13.6757 6.80059 14.0996 6.625 14.5417 6.625V6.625Z" stroke="#2177F7" stroke-width="1.5" stroke-linecap="round" stroke-linejoin="round"/>
</g>
<defs>
<clipPath id="clip0">
<rect width="20" height="20" fill="white" transform="translate(6 6)"/>
</clipPath>
</defs>
</svg>
