<svg width="20" height="20" viewBox="0 0 20 20" fill="none" xmlns="http://www.w3.org/2000/svg">
<path d="M15.0002 18.3334H5.00016C4.07969 18.3334 3.3335 17.5872 3.3335 16.6667V3.33335C3.3335 2.41288 4.07969 1.66669 5.00016 1.66669H10.8335C10.8426 1.66708 10.8516 1.66876 10.8602 1.67169C10.8683 1.6742 10.8767 1.67588 10.8852 1.67669C10.9587 1.6814 11.0312 1.69569 11.101 1.71919L11.1243 1.72669C11.1432 1.73309 11.1616 1.74089 11.1793 1.75002C11.2701 1.79037 11.3528 1.84684 11.4235 1.91669L16.4235 6.91669C16.4933 6.98734 16.5498 7.07007 16.5902 7.16085C16.5985 7.17919 16.6043 7.19835 16.611 7.21752L16.6185 7.23919C16.6418 7.30868 16.6555 7.381 16.6593 7.45419C16.6606 7.46184 16.6626 7.46937 16.6652 7.47669C16.6666 7.48437 16.6672 7.4922 16.6669 7.50002V16.6667C16.6669 17.5872 15.9206 18.3334 15.0002 18.3334ZM5.00016 3.33335V16.6667H15.0002V8.33335H10.8335C10.3733 8.33335 10.0002 7.96026 10.0002 7.50002V3.33335H5.00016ZM11.6668 4.51169V6.66669H13.8218L11.6668 4.51169Z" fill="#F74362"/>
</svg>
