<svg width="32" height="32" viewBox="0 0 32 32" fill="none" xmlns="http://www.w3.org/2000/svg">
<rect width="32" height="32" rx="4" fill="#F6EDFA"/>
<g clip-path="url(#clip0)">
<path d="M10.4395 21.4883C10.2837 21.4883 10.1345 21.4308 10.0187 21.3258C8.32369 19.7833 7.33202 17.6725 7.22452 15.3842C7.11702 13.095 7.90786 10.9008 9.45036 9.20666C11.0795 7.4175 13.387 6.39166 15.7812 6.39166C17.2587 6.39166 18.727 6.78166 20.0287 7.52C20.1737 7.6025 20.2787 7.73666 20.3229 7.8975C20.367 8.05833 20.3462 8.2275 20.2637 8.3725C20.1529 8.5675 19.9445 8.68916 19.7195 8.68916C19.612 8.68916 19.5054 8.66083 19.4112 8.6075C18.2987 7.97583 17.0437 7.6425 15.782 7.6425C13.7379 7.6425 11.767 8.51916 10.3745 10.0483C9.05702 11.495 8.38202 13.37 8.47369 15.325C8.56536 17.2808 9.41286 19.0833 10.8612 20.4008C10.9845 20.5133 11.057 20.6667 11.0645 20.8342C11.072 21.0008 11.0145 21.1608 10.902 21.2842C10.7837 21.4142 10.6154 21.4883 10.4395 21.4883Z" fill="#681484"/>
<path d="M7.67848 25.43C7.15848 25.43 6.73765 25.2742 6.43015 24.9658C5.63932 24.1733 5.86682 22.67 7.10765 20.4975C7.21848 20.3033 7.42682 20.1825 7.65098 20.1825C7.75932 20.1825 7.86598 20.2108 7.96015 20.2642C8.26015 20.4358 8.36432 20.8183 8.19348 21.1167C7.04765 23.1233 7.17098 23.9375 7.31515 24.0817C7.37432 24.1408 7.50098 24.1733 7.67265 24.1733C8.52432 24.1733 10.4243 23.3883 13.2026 21.185C13.3126 21.0975 13.451 21.05 13.591 21.05C13.7835 21.05 13.9618 21.1367 14.081 21.2867C14.2951 21.5558 14.2493 21.95 13.9802 22.1642C12.7418 23.1458 9.65015 25.4283 7.68182 25.4292H7.67848V25.43Z" fill="#681484"/>
<path d="M18.331 24.3566C18.1802 24.3566 18.0285 24.3208 17.8927 24.2516C17.6602 24.135 17.4868 23.9341 17.4043 23.6858L16.6377 21.3833L13.8627 18.6083L11.5593 17.8416C11.0493 17.6733 10.771 17.12 10.9402 16.6083C10.9885 16.4633 11.071 16.33 11.1785 16.2225L12.0293 15.3716C12.681 14.72 13.5435 14.3608 14.4568 14.3608C14.8285 14.3608 15.1977 14.4208 15.5535 14.54L16.5185 14.8608L20.3893 10.99C21.0102 10.3691 21.7893 9.92915 22.641 9.71748L24.3452 9.28915C24.451 9.26248 24.5593 9.24915 24.6677 9.24915C25.2785 9.24915 25.8085 9.66331 25.956 10.2566C26.0077 10.4666 26.0085 10.6883 25.956 10.8983L25.5285 12.6066C25.316 13.4583 24.8752 14.2366 24.2543 14.8575L20.3843 18.7283L20.7052 19.6941C21.1202 20.94 20.8018 22.29 19.8735 23.2183L19.0218 24.07C18.9143 24.1775 18.781 24.26 18.6368 24.3075C18.5385 24.34 18.4352 24.3566 18.331 24.3566ZM18.4502 22.8708L18.9918 22.3333C19.5827 21.7425 19.7852 20.8825 19.521 20.0891L19.3968 19.7166L17.8985 21.215L18.4502 22.8708ZM17.1843 20.1616L19.2285 18.1158C19.2335 18.1108 19.2385 18.1066 19.2435 18.1016L23.3718 13.9725C23.8327 13.5116 24.1593 12.9341 24.3177 12.3033L24.7443 10.5966C24.7468 10.585 24.7468 10.5708 24.7443 10.5591C24.7343 10.5208 24.6985 10.5 24.6677 10.5C24.661 10.5 24.6552 10.5008 24.6485 10.5025L22.9452 10.93C22.3118 11.0875 21.7343 11.4141 21.2743 11.8741L17.1552 15.9933C17.1485 16.0016 17.1418 16.0091 17.136 16.015L15.086 18.0633L17.1843 20.1616ZM14.0318 17.3475L15.5302 15.8491L15.1593 15.7258C14.931 15.65 14.696 15.6116 14.4593 15.6116C13.8777 15.6116 13.3293 15.8408 12.9135 16.2558L12.3735 16.7958L14.0318 17.3475Z" fill="#681484"/>
</g>
<defs>
<clipPath id="clip0">
<rect width="20" height="20" fill="white" transform="translate(6 6)"/>
</clipPath>
</defs>
</svg>
